<mxfile host="app.diagrams.net" agent="Mozilla/5.0 (Windows NT 10.0; Win64; x64; rv:128.0) Gecko/20100101 Firefox/128.0" version="24.7.6">
  <diagram name="Страница — 1" id="CAFVNUzRzoROxLdWgNmT">
    <mxGraphModel dx="1434" dy="754" grid="1" gridSize="10" guides="1" tooltips="1" connect="1" arrows="1" fold="1" page="1" pageScale="1" pageWidth="827" pageHeight="1169" math="0" shadow="0">
      <root>
        <mxCell id="0" />
        <mxCell id="1" parent="0" />
        <mxCell id="3vC7t7114KSFykKoW2y5-5" value="" style="edgeStyle=orthogonalEdgeStyle;rounded=0;orthogonalLoop=1;jettySize=auto;html=1;" edge="1" parent="1" source="3vC7t7114KSFykKoW2y5-1" target="3vC7t7114KSFykKoW2y5-2">
          <mxGeometry relative="1" as="geometry" />
        </mxCell>
        <mxCell id="3vC7t7114KSFykKoW2y5-1" value="открываем страницу" style="rounded=0;whiteSpace=wrap;html=1;" vertex="1" parent="1">
          <mxGeometry x="320" y="120" width="150" height="60" as="geometry" />
        </mxCell>
        <mxCell id="3vC7t7114KSFykKoW2y5-4" value="" style="edgeStyle=orthogonalEdgeStyle;rounded=0;orthogonalLoop=1;jettySize=auto;html=1;" edge="1" parent="1" source="3vC7t7114KSFykKoW2y5-2" target="3vC7t7114KSFykKoW2y5-3">
          <mxGeometry relative="1" as="geometry" />
        </mxCell>
        <mxCell id="3vC7t7114KSFykKoW2y5-2" value="загружаются пользователи" style="rounded=0;whiteSpace=wrap;html=1;" vertex="1" parent="1">
          <mxGeometry x="30" y="120" width="150" height="60" as="geometry" />
        </mxCell>
        <mxCell id="3vC7t7114KSFykKoW2y5-7" value="" style="edgeStyle=orthogonalEdgeStyle;rounded=0;orthogonalLoop=1;jettySize=auto;html=1;" edge="1" parent="1" source="3vC7t7114KSFykKoW2y5-3" target="3vC7t7114KSFykKoW2y5-6">
          <mxGeometry relative="1" as="geometry" />
        </mxCell>
        <mxCell id="3vC7t7114KSFykKoW2y5-3" value="нажимаем на пользователя" style="whiteSpace=wrap;html=1;rounded=0;" vertex="1" parent="1">
          <mxGeometry x="30" y="220" width="150" height="60" as="geometry" />
        </mxCell>
        <mxCell id="3vC7t7114KSFykKoW2y5-9" value="" style="edgeStyle=orthogonalEdgeStyle;rounded=0;orthogonalLoop=1;jettySize=auto;html=1;" edge="1" parent="1" source="3vC7t7114KSFykKoW2y5-6" target="3vC7t7114KSFykKoW2y5-8">
          <mxGeometry relative="1" as="geometry" />
        </mxCell>
        <mxCell id="3vC7t7114KSFykKoW2y5-6" value="подгружаются каналы, на которые он подписан" style="whiteSpace=wrap;html=1;rounded=0;" vertex="1" parent="1">
          <mxGeometry x="230" y="220" width="150" height="60" as="geometry" />
        </mxCell>
        <mxCell id="3vC7t7114KSFykKoW2y5-11" value="" style="edgeStyle=orthogonalEdgeStyle;rounded=0;orthogonalLoop=1;jettySize=auto;html=1;" edge="1" parent="1" source="3vC7t7114KSFykKoW2y5-8" target="3vC7t7114KSFykKoW2y5-10">
          <mxGeometry relative="1" as="geometry" />
        </mxCell>
        <mxCell id="3vC7t7114KSFykKoW2y5-8" value="нажимаем на канал" style="whiteSpace=wrap;html=1;rounded=0;" vertex="1" parent="1">
          <mxGeometry x="414" y="220" width="150" height="60" as="geometry" />
        </mxCell>
        <mxCell id="3vC7t7114KSFykKoW2y5-13" value="" style="edgeStyle=orthogonalEdgeStyle;rounded=0;orthogonalLoop=1;jettySize=auto;html=1;" edge="1" parent="1" source="3vC7t7114KSFykKoW2y5-10" target="3vC7t7114KSFykKoW2y5-12">
          <mxGeometry relative="1" as="geometry">
            <Array as="points">
              <mxPoint x="690" y="300" />
              <mxPoint x="105" y="300" />
            </Array>
          </mxGeometry>
        </mxCell>
        <mxCell id="3vC7t7114KSFykKoW2y5-10" value="загружаются последние 20 записей из базы данных" style="whiteSpace=wrap;html=1;rounded=0;" vertex="1" parent="1">
          <mxGeometry x="620" y="220" width="150" height="60" as="geometry" />
        </mxCell>
        <mxCell id="3vC7t7114KSFykKoW2y5-15" value="" style="edgeStyle=orthogonalEdgeStyle;rounded=0;orthogonalLoop=1;jettySize=auto;html=1;" edge="1" parent="1" source="3vC7t7114KSFykKoW2y5-12" target="3vC7t7114KSFykKoW2y5-14">
          <mxGeometry relative="1" as="geometry" />
        </mxCell>
        <mxCell id="3vC7t7114KSFykKoW2y5-12" value="нажимаем на комментрарии" style="whiteSpace=wrap;html=1;rounded=0;" vertex="1" parent="1">
          <mxGeometry x="30" y="320" width="150" height="60" as="geometry" />
        </mxCell>
        <mxCell id="3vC7t7114KSFykKoW2y5-18" value="" style="edgeStyle=orthogonalEdgeStyle;rounded=0;orthogonalLoop=1;jettySize=auto;html=1;" edge="1" parent="1" source="3vC7t7114KSFykKoW2y5-14" target="3vC7t7114KSFykKoW2y5-17">
          <mxGeometry relative="1" as="geometry" />
        </mxCell>
        <mxCell id="3vC7t7114KSFykKoW2y5-14" value="открывается окно просмотра комментариев к записи" style="whiteSpace=wrap;html=1;rounded=0;" vertex="1" parent="1">
          <mxGeometry x="230" y="320" width="150" height="60" as="geometry" />
        </mxCell>
        <mxCell id="3vC7t7114KSFykKoW2y5-20" value="" style="edgeStyle=orthogonalEdgeStyle;rounded=0;orthogonalLoop=1;jettySize=auto;html=1;" edge="1" parent="1" source="3vC7t7114KSFykKoW2y5-17" target="3vC7t7114KSFykKoW2y5-19">
          <mxGeometry relative="1" as="geometry" />
        </mxCell>
        <mxCell id="3vC7t7114KSFykKoW2y5-17" value="нажимаем на автора комментария" style="whiteSpace=wrap;html=1;rounded=0;" vertex="1" parent="1">
          <mxGeometry x="414" y="320" width="146" height="60" as="geometry" />
        </mxCell>
        <mxCell id="3vC7t7114KSFykKoW2y5-19" value="показываем все комментарии и записи этого автора" style="whiteSpace=wrap;html=1;rounded=0;" vertex="1" parent="1">
          <mxGeometry x="620" y="320" width="150" height="60" as="geometry" />
        </mxCell>
      </root>
    </mxGraphModel>
  </diagram>
</mxfile>
